<svg xmlns="http://www.w3.org/2000/svg" width="900" height="900" viewBox="0 0 900 900" role="img">
<title>Regular dodecagon baseline and frozen wall</title>
<desc>Parameter-free regular dodecagon baseline using the inherited normalized apothem, compared geometrically with the frozen polar-pivot wall.</desc>
<g id="coordinate-frame" fill="none" stroke="currentColor" stroke-width="1">
<line id="axis-x" x1="70" y1="450.000000" x2="830" y2="450.000000" opacity="0.18"/>
<line id="axis-y" x1="450.000000" y1="70" x2="450.000000" y2="830" opacity="0.18"/>
</g>
<polygon id="regular-dodecagon-baseline" points="807.000000,354.342138 711.342138,188.657862 545.657862,93.000000 354.342138,93.000000 188.657862,188.657862 93.000000,354.342138 93.000000,545.657862 188.657862,711.342138 354.342138,807.000000 545.657862,807.000000 711.342138,711.342138 807.000000,545.657862" fill="none" stroke="currentColor" stroke-width="1.8" stroke-dasharray="9 6" opacity="0.55"/>
<polygon id="frozen-polar-pivot-wall" points="807.000000,354.342138 709.949232,190.050768 545.657862,93.000000 354.342138,93.000000 190.050768,190.050768 93.000000,354.342138 93.000000,545.657862 190.050768,709.949232 354.342138,807.000000 545.657862,807.000000 709.949232,709.949232 807.000000,545.657862" fill="none" stroke="currentColor" stroke-width="2.8"/>
<circle id="construction-centre" cx="450.000000" cy="450.000000" r="4.5" fill="currentColor"/>
<line id="baseline-displacement-wall_vertex_00" x1="807.000000" y1="354.342138" x2="807.000000" y2="354.342138" stroke="currentColor" stroke-width="1.5" opacity="0.70"/>
<circle id="regular-wall_vertex_00" cx="807.000000" cy="354.342138" r="4.5" fill="none" stroke="currentColor" stroke-width="1.4" opacity="0.55"/>
<circle id="frozen-wall_vertex_00" cx="807.000000" cy="354.342138" r="4.8" fill="none" stroke="currentColor" stroke-width="2.0"/>
<line id="baseline-displacement-wall_vertex_01" x1="711.342138" y1="188.657862" x2="709.949232" y2="190.050768" stroke="currentColor" stroke-width="1.5" opacity="0.70"/>
<circle id="regular-wall_vertex_01" cx="711.342138" cy="188.657862" r="4.5" fill="none" stroke="currentColor" stroke-width="1.4" opacity="0.55"/>
<circle id="frozen-wall_vertex_01" cx="709.949232" cy="190.050768" r="6.2" fill="none" stroke="currentColor" stroke-width="2.0"/>
<line id="baseline-displacement-wall_vertex_02" x1="545.657862" y1="93.000000" x2="545.657862" y2="93.000000" stroke="currentColor" stroke-width="1.5" opacity="0.70"/>
<circle id="regular-wall_vertex_02" cx="545.657862" cy="93.000000" r="4.5" fill="none" stroke="currentColor" stroke-width="1.4" opacity="0.55"/>
<circle id="frozen-wall_vertex_02" cx="545.657862" cy="93.000000" r="4.8" fill="none" stroke="currentColor" stroke-width="2.0"/>
<line id="baseline-displacement-wall_vertex_03" x1="354.342138" y1="93.000000" x2="354.342138" y2="93.000000" stroke="currentColor" stroke-width="1.5" opacity="0.70"/>
<circle id="regular-wall_vertex_03" cx="354.342138" cy="93.000000" r="4.5" fill="none" stroke="currentColor" stroke-width="1.4" opacity="0.55"/>
<circle id="frozen-wall_vertex_03" cx="354.342138" cy="93.000000" r="4.8" fill="none" stroke="currentColor" stroke-width="2.0"/>
<line id="baseline-displacement-wall_vertex_04" x1="188.657862" y1="188.657862" x2="190.050768" y2="190.050768" stroke="currentColor" stroke-width="1.5" opacity="0.70"/>
<circle id="regular-wall_vertex_04" cx="188.657862" cy="188.657862" r="4.5" fill="none" stroke="currentColor" stroke-width="1.4" opacity="0.55"/>
<circle id="frozen-wall_vertex_04" cx="190.050768" cy="190.050768" r="6.2" fill="none" stroke="currentColor" stroke-width="2.0"/>
<line id="baseline-displacement-wall_vertex_05" x1="93.000000" y1="354.342138" x2="93.000000" y2="354.342138" stroke="currentColor" stroke-width="1.5" opacity="0.70"/>
<circle id="regular-wall_vertex_05" cx="93.000000" cy="354.342138" r="4.5" fill="none" stroke="currentColor" stroke-width="1.4" opacity="0.55"/>
<circle id="frozen-wall_vertex_05" cx="93.000000" cy="354.342138" r="4.8" fill="none" stroke="currentColor" stroke-width="2.0"/>
<line id="baseline-displacement-wall_vertex_06" x1="93.000000" y1="545.657862" x2="93.000000" y2="545.657862" stroke="currentColor" stroke-width="1.5" opacity="0.70"/>
<circle id="regular-wall_vertex_06" cx="93.000000" cy="545.657862" r="4.5" fill="none" stroke="currentColor" stroke-width="1.4" opacity="0.55"/>
<circle id="frozen-wall_vertex_06" cx="93.000000" cy="545.657862" r="4.8" fill="none" stroke="currentColor" stroke-width="2.0"/>
<line id="baseline-displacement-wall_vertex_07" x1="188.657862" y1="711.342138" x2="190.050768" y2="709.949232" stroke="currentColor" stroke-width="1.5" opacity="0.70"/>
<circle id="regular-wall_vertex_07" cx="188.657862" cy="711.342138" r="4.5" fill="none" stroke="currentColor" stroke-width="1.4" opacity="0.55"/>
<circle id="frozen-wall_vertex_07" cx="190.050768" cy="709.949232" r="6.2" fill="none" stroke="currentColor" stroke-width="2.0"/>
<line id="baseline-displacement-wall_vertex_08" x1="354.342138" y1="807.000000" x2="354.342138" y2="807.000000" stroke="currentColor" stroke-width="1.5" opacity="0.70"/>
<circle id="regular-wall_vertex_08" cx="354.342138" cy="807.000000" r="4.5" fill="none" stroke="currentColor" stroke-width="1.4" opacity="0.55"/>
<circle id="frozen-wall_vertex_08" cx="354.342138" cy="807.000000" r="4.8" fill="none" stroke="currentColor" stroke-width="2.0"/>
<line id="baseline-displacement-wall_vertex_09" x1="545.657862" y1="807.000000" x2="545.657862" y2="807.000000" stroke="currentColor" stroke-width="1.5" opacity="0.70"/>
<circle id="regular-wall_vertex_09" cx="545.657862" cy="807.000000" r="4.5" fill="none" stroke="currentColor" stroke-width="1.4" opacity="0.55"/>
<circle id="frozen-wall_vertex_09" cx="545.657862" cy="807.000000" r="4.8" fill="none" stroke="currentColor" stroke-width="2.0"/>
<line id="baseline-displacement-wall_vertex_10" x1="711.342138" y1="711.342138" x2="709.949232" y2="709.949232" stroke="currentColor" stroke-width="1.5" opacity="0.70"/>
<circle id="regular-wall_vertex_10" cx="711.342138" cy="711.342138" r="4.5" fill="none" stroke="currentColor" stroke-width="1.4" opacity="0.55"/>
<circle id="frozen-wall_vertex_10" cx="709.949232" cy="709.949232" r="6.2" fill="none" stroke="currentColor" stroke-width="2.0"/>
<line id="baseline-displacement-wall_vertex_11" x1="807.000000" y1="545.657862" x2="807.000000" y2="545.657862" stroke="currentColor" stroke-width="1.5" opacity="0.70"/>
<circle id="regular-wall_vertex_11" cx="807.000000" cy="545.657862" r="4.5" fill="none" stroke="currentColor" stroke-width="1.4" opacity="0.55"/>
<circle id="frozen-wall_vertex_11" cx="807.000000" cy="545.657862" r="4.8" fill="none" stroke="currentColor" stroke-width="2.0"/>
<g id="regular-side-normal-guides" stroke="currentColor" fill="none" opacity="0.22">
<line id="regular-normal-00" x1="450.000000" y1="450.000000" x2="807.000000" y2="450.000000" stroke-width="1"/>
<line id="regular-normal-01" x1="450.000000" y1="450.000000" x2="759.171069" y2="271.500000" stroke-width="1"/>
<line id="regular-normal-02" x1="450.000000" y1="450.000000" x2="628.500000" y2="140.828931" stroke-width="1"/>
<line id="regular-normal-03" x1="450.000000" y1="450.000000" x2="450.000000" y2="93.000000" stroke-width="1"/>
<line id="regular-normal-04" x1="450.000000" y1="450.000000" x2="271.500000" y2="140.828931" stroke-width="1"/>
<line id="regular-normal-05" x1="450.000000" y1="450.000000" x2="140.828931" y2="271.500000" stroke-width="1"/>
<line id="regular-normal-06" x1="450.000000" y1="450.000000" x2="93.000000" y2="450.000000" stroke-width="1"/>
<line id="regular-normal-07" x1="450.000000" y1="450.000000" x2="140.828931" y2="628.500000" stroke-width="1"/>
<line id="regular-normal-08" x1="450.000000" y1="450.000000" x2="271.500000" y2="759.171069" stroke-width="1"/>
<line id="regular-normal-09" x1="450.000000" y1="450.000000" x2="450.000000" y2="807.000000" stroke-width="1"/>
<line id="regular-normal-10" x1="450.000000" y1="450.000000" x2="628.500000" y2="759.171069" stroke-width="1"/>
<line id="regular-normal-11" x1="450.000000" y1="450.000000" x2="759.171069" y2="628.500000" stroke-width="1"/>
</g>
</svg>
